<svg width="64" height="64" viewBox="0 0 64 64" fill="none" xmlns="http://www.w3.org/2000/svg">
<g clip-path="url(#clip0_1_7)">
<path d="M37.3402 9.01672H27.6881H21.3311C24.9935 11.1551 27.5002 15.0557 27.6881 19.5562V43.9642C27.6881 50.0412 32.6143 54.9674 38.6911 54.9674H48.3432V20.0198C48.3432 13.943 43.417 9.01672 37.3402 9.01672Z" fill="#EA6959"/>
<path d="M3.01833 43.9643C3.01833 50.0662 7.96478 55.0127 14.0666 55.0127C20.1684 55.0127 25.1149 50.0662 25.1149 43.9643V32.916H14.0666C7.96478 32.916 3.01833 37.8625 3.01833 43.9643Z" fill="#EA6959"/>
<path d="M14.8734 30.3427C20.5295 30.3427 25.1146 25.7575 25.1146 20.1014C25.1146 14.4453 20.5295 9.86011 14.8734 9.86011C9.21728 9.86011 4.63211 14.4453 4.63211 20.1014C4.63211 25.7575 9.21728 30.3427 14.8734 30.3427Z" fill="#EA6959"/>
<path d="M56.4408 43.9642C53.3897 43.9642 50.9165 46.4376 50.9165 49.4887V55.013H56.4408C59.4915 55.013 61.9651 52.5398 61.9651 49.4887C61.9647 46.4376 59.4915 43.9642 56.4408 43.9642Z" fill="#EA6959"/>
</g>
<defs>
<clipPath id="clip0_1_7">
<rect width="59" height="46.0237" fill="white" transform="translate(3 9)"/>
</clipPath>
</defs>
</svg>
